<svg xmlns="http://www.w3.org/2000/svg" width="312.5" height="317.625" viewBox="0 0 312.5 317.625">
  <defs>
    <rect id="rect-1" width="312.5" height="317.625" x="0" y="0"/>
  </defs>
  <g>
    <g>
      <path fill="rgb(255,255,255)" fill-rule="evenodd" d="M2.24316406 178.13516235l-.81137085-6.50942993c.43005371 3.97283936.92895508 8.41268921 1.8411255 12.85757446l-.54931642-3.1564331c-.20275878-1.05703735-.3630371-2.12182617-.48043823-3.19171143zm45.66339112 92.64215088c-3.44567872-3.34298706-6.7312317-6.84716797-9.84561158-10.50076294l-.02688598-.03359985c-2.7027893-3.16860962-5.2805481-6.44177246-7.72732544-9.81201172.32086181.43676758.65682983.8600769.97937011 1.29516602-2.28326416-3.10910035-4.45120239-6.30133057-6.49935913-9.57009888-4.44656372-7.12762451-8.4177246-14.62310791-11.85806274-23.19204712.7753601 1.52267456 1.51800537 3.06176758 2.22747803 4.61624146.79122925 1.77728271 1.8243103 3.61166381 2.7213745 5.41918945l1.34890748 2.60546875 1.3371582 2.26443481c.83154297 1.38250733 1.52529908 2.46768189 1.98223877 3.03717041 11.07022095 19.05117798 26.22583008 35.7170105 43.94491577 48.69723511 8.84710694 6.4821167 18.34661866 12.02313232 28.34417725 16.53308106 9.93554687 4.4440918 20.31622314 7.81726074 30.96636963 10.06231689-2.14685059-.22009277-4.14587402-.66186523-6.07098389-1.04821777-1.92346191-.39813233-3.76287842-.78112793-5.48809814-1.32037354-1.73529053-.5022583-3.3949585-1.00958252-4.99584961-1.51690674-1.58746338-.54760742-3.09765625-1.15576172-4.57592774-1.72351074-5.91644287-2.28631592-10.96606445-4.94213867-16.44073486-7.50561523-14.85827637-7.26702881-28.70864868-16.87576294-40.32315063-28.30715943zm130.61691284 39.93844605c-11.4784546 1.81591797-23.19708252 2.15356445-34.37145996 1.02301025 2.60882568.18988037 5.24279785.14782715 7.9154663.18988037 19.97009278.56274414 40.383667-2.80200195 59.61791993-10.36639404-10.44360352 4.13580322-21.67675782 7.34429932-33.16192627 9.15350342z"/>
      <path fill="rgb(255,255,255)" fill-rule="evenodd" d="M297.9189148 173.13757324c-.08398438 1.32540894-.41656495 4.1105957-.5812378 6.76477051-.4387207 1.63287354-.85144043 3.27261353-1.2380371 4.91860962 3.51593017-18.48342896 3.57977294-38.07385254-.24188233-57.58868408.53082275 2.61050415.94909668 5.27304077 1.43457031 7.9624939.31921387 2.71295165.69714356 5.46289062.9541626 8.27160644.21002197 2.80197143.73913574 5.2663269.9239502 6.58163452.04199218 7.29730225-.25366212 14.57104492-1.25152589 23.0895691zM94.20162963 297.81115723c9.20770264 4.28424072 18.85180664 7.55999756 28.76409912 9.77001953-16.27441406-3.71246338-31.58966064-10.26220703-44.9763794-18.70178223 5.14031983 3.27069092 10.5444336 6.29779053 16.21228028 8.9317627z"/>
      <path fill="rgb(255,255,255)" fill-rule="evenodd" d="M8.83154297 109.82061768C5.9472351 117.34802246 2.9151001 128.646698 1.49060059 140.2376709-.02127075 151.82196045.01400757 163.55908203.22567749 171.74328613c-.98104858-19.88104248 1.12716675-41.89212036 8.47653198-63.5958252 3.72442627-11.0982666 8.60427857-21.77459716 14.55926514-31.85333251C29.33413696 66.0201416 36.75909424 56.3106079 45.2104187 47.41073608c1.0263977-1.14230346 2.14013671-2.20394897 3.24212646-3.27737426l3.31097412-3.22363282 3.46554565-3.0741272c1.15237427-1.0314331 2.30810547-2.06118774 3.53271485-3.01031493l3.6234436-2.9178772c1.20275879-.98104859 2.49456787-1.84785462 3.73934936-2.77848816 1.26828003-.89704895 2.4845276-1.87303162 3.79812622-2.70793152l3.9039917-2.56680298c1.28674317-.88192749 2.64074707-1.65634155 3.98461914-2.44921875l4.03497315-2.3719635 4.147583-2.17875671c1.3791504-.73410034 2.76165772-1.4597931 4.1928711-2.0914154l4.25341797-1.97047425c1.41442871-.66522217 2.88769531-1.19268799 4.3289795-1.79576111 1.45642089-.56611633 2.88262939-1.21284485 4.36254882-1.71176147l4.42645264-1.53370667C119.3859558 3.72619629 131.72109985 1.39456177 144.0041809.44544983c12.28979492-.92391968 24.59136963-.42835999 36.4175415 1.65296936l4.94543457.87521362c1.64459229.29396057 3.25726319.7206421 4.88336182 1.07173157 3.26397705.67027283 6.4321289 1.64457703 9.61547851 2.51811218 6.30108643 1.94862366 12.49139405 4.12739563 18.40612793 6.8117981 5.97686768 2.55673218 11.64642334 5.6392517 17.18151856 8.83769226l4.06018066 2.53321838 2.02087403 1.26997376 1.9586792 1.35395813 3.90905761 2.70120239 3.76959229 2.8607788c10.0203247 7.64334107 18.90838623 16.42056275 26.644104 25.89996339 7.74414063 9.4760437 14.359375 19.66433716 19.62402344 30.3465271l1.64794922 3.56799316.95922851 2.13510132.93566895 2.37698364c.63500976 1.64962769 1.34887695 3.40338135 2.02087402 5.26300049l1.9317627 5.8526001c2.51141357 8.09014892 4.460083 17.1730957 5.56872558 24.82315063 2.07299805 13.5194397 2.5366211 27.29592896 1.36407471 40.92623902l-.57452393 5.09667968-.28894042 2.54833985-.4048462 2.53152466-.8180542 5.0597229-1.03985595 5.01434326c-.63165283 3.3597107-1.60760498 6.6303711-2.43243408 9.93969726-.44519043 1.64624024-.98937989 3.26055909-1.48162842 4.89172364-.50726319 1.62609863-.97601319 3.265625-1.5857544 4.85476684-9.71289062 27.37319947-27.13970947 51.49752808-49.89331054 69.65841675-22.73846436 18.15753174-51.112854 30.28607178-82.01708985 33.45593262-3.07580566.28051758-6.45733642.43341064-9.30804443.45019531-2.85906983-.08062744-5.184021-.23181152-6.17010498-.42163086-.98773194-.18981934-.63500977-.41998291 1.8461914-.66693115 1.23968506-.13604737 3.0119629-.22174072 5.4124756-.41156006l4.0786743-.4031372c1.52362061-.15960694 3.22363282-.25201417 5.08825684-.54766846 12.4321289-1.62402344 24.63916016-4.65722657 36.38555908-9.0409546 6.16003418-2.35992431 12.1704712-5.0930786 17.99798584-8.1842041-3.11029052 1.625-6.27648925 3.140625-9.49285888 4.54400635-7.03112793 3.05316162-14.2802124 5.57769776-21.68688965 7.5526123l3.52935791-1.03814697c2.21661377-.59350586 4.32196045-1.35650634 6.33972168-2.03289795l-3.34283447 1.08374024c-1.65802002.519104-3.34796143.92730713-5.0177002 1.3942871-3.32781982.98272706-6.73791504 1.60931397-10.10772705 2.37530518-6.79327393 1.25152588-13.61853027 2.27618409-20.4874878 2.64074707-6.8571167.5223999-13.73608398.39306641-20.578125.00842286-3.41345214-.31414795-6.83868407-.519104-10.22528075-1.0633545-1.69329834-.25201416-3.40002442-.42840576-5.08325196-.74755859l-5.0479126-.95916748c9.62207032 1.74511719 19.38494874 2.59710693 29.1638794 2.54492187 9.96044922-.08117675 19.89117432-1.0986328 29.66113281-3.03881835 19.67608643-3.88214112 38.84991455-11.74047852 55.74926758-23.0946045 16.91949463-11.31884765 31.5425415-26.06628418 42.70684814-42.8395996 11.19458008-16.7598877 18.91015625-35.52716065 22.79730225-54.54644776-2.64239502 10.59146118-6.48425293 22.71832275-11.65985107 33.93133545-5.19915772 11.18948364-11.71362305 21.37609863-17.88372803 28.5826416 5.40386963-7.04559326 10.21356201-14.52758789 14.37957764-22.36889648 4.17443847-7.853302 7.62316894-16.1064148 10.41503906-24.59973145 5.5637207-16.98834228 8.37072754-35.0534668 7.8885498-53.2798767l.17980957 4.01651c.0480957.82681275.0447998 1.6510315.04150391 2.47467041-.00201416.5005188-.00402832 1.00009155.00549316 1.49987793.53253174-11.30877685-.4031372-23.06436157-2.6541748-34.55456543-2.23925781-11.5019226-5.90637207-22.6897583-10.37304688-33.08972168 8.1842041 19.14865113 12.35192872 39.53363037 12.80041504 59.65322876-.46691894-9.21902466-1.42443847-18.99911499-3.85186767-30.4657898.61315918 3.1060486 1.09191894 6.946167 1.72521972 11.10549927.4418335 4.18954468.97930909 8.71505738 1.1506958 13.27249146.76269532 11.93032837.258667 23.96310425-1.7269287 35.63641357 2.82556152-18.09875488 2.27624511-36.41247558-1.03979493-52.57601928 1.93017578 12.2024231 2.7062378 24.7946167 1.77563477 37.31118774-.89367676 12.50650025-3.16320801 24.94244385-6.9630127 36.73669434 1.92510987-6.52453614 3.62512207-13.12805176 4.67333985-19.84747315.6484375-3.33953857.95751953-6.72613525 1.38928222-10.09423828.19818116-1.68655395.26538086-3.3848877.40478516-5.07647705.11254883-1.69161987.28051758-3.38323975.28222656-5.08157349-1.42614746 30.8135376-12.1873169 60.69137574-30.2355957 85.06100464 9.92785644-12.95672607 18.18774414-28.28033447 23.48596191-44.96124267-3.44891357 11.11968994-8.11816406 21.82336425-13.92260742 31.91549682-5.76861572 10.11270142-12.84411621 19.4610901-20.77807617 27.97122193-15.84771729 17.07232666-35.86651611 30.16845703-57.6508789 38.08221435l6.08947753-2.83221435c2.09814453-1.01965332 4.1895752-2.1619873 6.21044922-3.20684815 1.88476563-.99279785 3.60491943-2.09307861 5.1772461-3.04388427-4.18444825 2.29638671-8.81921387 4.61791992-13.77807618 6.5883789l-2.42572021.9541626 4.58428955-1.88476563c1.52026367-.64508056 2.99682617-1.39093017 4.5003662-2.08135986 2.57183839-1.13555908 5.03283692-2.4979248 7.515625-3.81829834 1.38769532-.83331299 2.72137452-1.75341797 3.993042-2.75494385-.11566162.02020264-1.58465576.72790528-3.25756836 1.53387451-3.47802734 1.67565918-7.83721924 3.77581788-2.75128174 1.00604249 3.4420166-1.83441163 6.59002686-3.90063477 9.67089844-5.78710938 2.98175049-2.04937744 5.90637207-3.92578125 8.5369873-5.97686768 5.39398194-3.91912841 9.95483399-7.984375 14.00830079-11.72540283 7.94573974-7.66680908 13.38165283-14.59790039 16.36676025-20.2170105.25872803-.5493164-.95581055.6853943-2.80529785 2.68606568-.91723633 1.00457764-2.10656738 2.1149292-3.29589844 3.3328247-1.20275879 1.2095337-2.45092773 2.49291993-3.75445556 3.630188l-3.56463624 3.21520995c-.87963867.73278809-1.7803955 1.4397583-2.7012329 2.11999512-1.31195069.9541626-1.48162842.86175537.41326904-1.11712646 1.65466308-1.58410645 3.41845703-3.6906128 5.52001953-5.961792 1.05151367-1.13555908 2.04266357-2.44415283 3.15136719-3.7527771l1.67651367-2.02590942c.56774902-.69207764 1.0935669-1.44128418 1.65795898-2.17877197 5.03625489-6.53790283 9.50366211-13.49493408 13.35314942-20.79486084 1.24475097-2.21740723 2.3585205-4.55914307 3.57305908-6.90081787 1.08520508-2.40386963 2.2090454-4.84472656 3.26226807-7.3661499.27722167-.61987305.58795166-1.72857666.99450683-3.1161499 3.17980957-8.43756104 5.60388184-17.14093018 7.24353027-26.0074463.32922364-2.01919555.75756836-3.9510498.97937012-5.83078003l.6920166-5.36209106c.2150879-1.69665527.28894043-3.30596924.43005371-4.79766846.10583497-1.49505615.28729248-2.8708496.31414795-4.1307373l.21502686-5.58718872c.0505371-1.18798828.02886963-2.3746338.00708008-3.56326294-.01226807-.66635132-.0244751-1.33255005-.02386475-1.99871826l.206604-4.91189576c-.33428955-2.31988525-.49554443-4.66159057-.87353515-6.9764099-.94274902-9.80364991-2.86053467-19.48883057-5.72491455-28.9119568-1.49847412-5.21426391-3.15307617-10.3882141-5.21087647-15.36392211-.01751709.04031372-.01568603.13098144-.0137329.22738647.00543212.2585144.01135253.54156494-.37432862-.11315918l-1.83441162-4.19458008-2.0376587-4.09213257c-1.29180907-2.75997924-2.89270019-5.35198974-4.3441162-8.01959228-3.13458252-5.20083618-6.43548584-10.3008728-10.1748047-15.06829834l-2.10827636-2.94308472-2.11828613-2.73648071-1.99230957-2.63064575c-.64501953-.8550415-1.32537842-1.6378479-1.9486084-2.43411255-1.61602783-1.51522827-3.58483887-3.37145996-5.84082031-5.42422485 1.35229492 1.29177856 2.72131347 2.60375976 3.87878418 3.71246337-.01342774.23349-.0269165.47036744.3359375 1.0583191-.7508545-.80969239-1.46984864-1.64962769-2.24597168-2.43411255l-2.3433838-2.3383484-2.3416748-2.33670043-2.4475708-2.22076416-.07055664-.06381226c-.0772705-.06887817-.15789795-.13439941-.23516845-.20495605-3.57165528-3.06478882-7.27056885-5.97796631-11.08703614-8.73187256-2.36694336-1.79910278-4.9354248-3.41009521-7.46862793-5.0933075-1.2498169-.87016296-2.60375976-1.57569885-3.8972168-2.37194824-1.3170166-.75593567-2.58703613-1.59082031-3.92749023-2.27452087-2.6710205-1.38420105-5.25628662-2.85406494-7.8953247-4.00308228l-3.8468628-1.77728271-3.76959228-1.50178528.01177978.04702759c-9.84228515-3.94596863-20.18682861-6.9125824-30.88580322-8.57228089-1.75372315-.34100341-3.42523193-.69041442-4.99084473-1.04318237-1.33544922-.12263489-2.71295166-.15623474-3.91741943-.22509765-1.20440674-.06552125-2.24255371-.12599183-2.90948486-.13775635-8.59918213-.69714356-15.9249878-.78112793-23.26428223-.362854-1.32202149.17471313-3.77459717.88696288-6.58666992 1.22462463-1.41442871.13102722-2.79693604.39811706-4.17279053.63497925l-4.09375.71562194c-2.68945313.57113648-5.32684326 1.20613099-7.93060303 1.8327179l-4.5524292 1.2649231-2.2845459.63835144-2.25604248.75256347-4.53564453 1.51019287-4.48016357 1.74536133c-20.15148926 7.93730164-38.0335083 20.52780151-52.56420899 35.97738648-.56277465.40316772-.80130004.40988159-1.04656982.42163085-1.04318237 1.28677369-2.27450562 2.84567261-3.54278564 4.31555176-1.17245484 1.33319092-2.27102662 2.72955323-3.29083252 4.18283081.29901123-.48379516.46194458-.80969238.33596801-.79455566l-6.18521118 8.5369873c-.8500061 1.09863282-1.59249878 2.23086548-2.4677124 3.51928711-.8500061 1.3019104-1.89990234 2.72305298-2.99685669 4.62127686-.96255493 1.73025513-1.7201538 3.4269104-2.63064575 5.1470642l-1.34555054 2.56347657c-5.16555786 8.5218811-8.63278198 17.92736816-11.57250976 28.60784912-3.084198 10.63516235-5.06811524 21.62475586-5.72494507 32.72521973-.09405518 2.2022705-.2015686 4.0635376-.31915283 5.71484375-.12768555 1.65130615-.11254883 3.09259033-.1932068 4.45159912l-.19317626 3.95605469c-.02056885 1.24502563.00064087 2.5288391.02426147 3.9585266l.00430298.261261c-.61987305-6.4640503-.55267334-13.2237854-.21838379-20.06750489.29733277-3.41345215.4921875-6.86724853 1.0263977-10.29580688.25534058-1.71511841.40148927-3.44876099.74584962-5.15213013l.93902588-5.12689209c1.44467163-6.78826904 3.10269165-13.52279663 5.32009887-19.91799927.25701905-.80633545.51739502-1.60928345.77441407-2.40890503l.87521362-2.35516357 1.7201538-4.66998291 1.87472535-4.5204773.91549682-2.23587036.99447632-2.17037964c-3.38153076 6.60855103-6.64715576 14.09899903-9.13839721 21.82461548-2.50967408 7.7189331-4.3591919 15.59744263-5.64764405 22.78048706-2.40890503 14.4114685-2.3954773 25.92684937-3.08590698 28.16607666-.35107422 1.12716675-.59466553-.89031982-.77102661-4.93710327-.03817749-1.58364868.01330566-3.47732544.07131958-5.61080932l.00003052-.00164795c.01605224-.59072876.03262329-1.19985962.0479126-1.82589722.0151062-1.44470215.20999145-2.97332764.32254028-4.57592774.15286255-1.60256958.23516846-3.28240966.47033691-5.00259399.80969239-6.89749145 2.31484986-14.58111572 4.21810913-21.89181518 1.84176636-6.6722107 4.05078125-13.23757935 6.61694336-19.66604615l-2.54330444 5.72662354c.61987305-1.4362793 1.26998901-2.86416626 1.84951782-4.27017212.5913086-1.40100098 1.08184815-2.79696655 1.59082031-4.09213257-.74417114 1.38082886-1.44970703 3.18164063-2.28964233 5.08154297l-1.2649231 2.9347229-1.1456604 3.0270691c-1.58746338 3.96951293-2.75158691 7.72061156-3.47225952 9.33493041l1.16751099-5.5098877zM170.1578064 2.4915161c-2.46942139-.18478393-4.93878174-.42500305-7.40313721-.55603027-.3248291-.00752258-.6494751-.01521301-.97387695-.02290344-2.1402588-.05070496-4.27069092-.1011963-6.37713623-.09973145l7.32415771.17301941c2.46600342.12095642 4.9454956.34269714 7.42999268.50564575zm92.36328125 45.60125733c1.85961914 1.77728271 2.84399414 2.57519531-.5291748-1.08517456-7.3190918-7.70043946-15.97033692-14.75079346-25.61102296-20.94944763-9.63726806-6.21040345-20.2623291-11.58761597-31.68200683-15.90986634-5.95001221-2.37867737-14.3324585-4.68174743-23.51959229-6.21377563-1.23468017-.28222657-2.18041992-.48547364-2.97161865-.59466553-.79290772-.08903503-1.42456055-.12934875-2.022583-.15455627-1.99230958-.22509766-4.00476075-.5241089-6.02728272-.69377137 1.8494873.16798401 3.67718506.46028138 5.4998169.6736145-1.2699585-.03359985-2.60375977-.1007843-5.32177735-.40316772 16.91778564 1.90663147 33.84228515 6.68244934 49.559021 14.41481018 15.70489501 7.73571777 30.21380615 18.25160217 42.6262207 30.91600037zm18.23986816 21.78262329c5.05535889 7.63537598 9.42492676 15.70327759 13.05749512 24.10922241.41992187.92224121.81640625 1.85794067 1.2078247 2.79528809 8.33709717 20.41693115 12.130188 42.31881714 11.57415772 63.89483642.14111328-7.13934326-.3326416-14.2753601-1.12384033-21.35089111-.8953247-8.15402222-2.5499878-16.21057129-4.74389649-24.09075928-4.30377197-15.80236816-11.29364013-30.77993774-20.16662597-44.43377685.8147583 1.12548828 1.67315673 2.34506225 2.56176757 3.6385498.95147706 1.3387146 1.8427124 2.71923828 2.67095948 4.13748169l-1.07171631-1.86294556-1.15740967-1.81256103-2.31481934-3.62176514c-1.57574462-2.39212036-3.28411865-4.6968689-4.92871093-7.04193115-1.78399658-2.24093628-3.47564698-4.55575562-5.33184815-6.73788452-1.4043579-1.60092163-2.74993896-3.2555542-4.17443847-4.83630371 5.02612304 5.29992675 9.744812 10.98623657 13.94110107 17.21343994zM306.1300354 200.987854c-.5022583 1.5135498-.92730713 3.00863648-1.48162842 4.43649292l-1.60760498 4.23828125-.78283691 2.09643555-.86175537 2.06790161c-.57562256 1.39346314-1.13391114 2.79400635-1.6748047 4.20132446-3.11035155 7.74691773-6.8095703 15.24420167-11.06518554 22.4260254-4.23492431 7.18136596-9.14343261 13.91085815-14.38793945 20.22540283-2.59033203 3.19003296-5.41247559 6.1482544-8.18762207 9.10647583l-4.33569336 4.23828125c-1.17266846 1.17407226-2.4366455 2.24316406-3.67059326 3.33517456 3.02410888-2.68838501 5.94049072-5.4967041 8.74206543-8.41842652-6.03961182 6.26019288-12.609375 11.98632813-19.63574219 17.11434937-1.74035645 1.2128601-3.421875 2.513031-5.22943115 3.65536499l-5.45446778 3.47558594-5.76190185 3.27404785c-1.96038818 1.08856201-4.02990723 2.05615234-6.10455322 3.11608887 1.4857788-.87548829 2.98956298-1.72009278 4.51037597-2.53320313 1.71514893-.95245361 3.51428223-2.0779419 5.27142334-3.10772705 1.77056885-1.00958252 3.37982178-2.11828613 4.71697998-3.04553223 1.3371582-.92730713 2.38543701-1.69665527 2.93133545-2.19390869 18.36419678-12.54177856 34.00860596-29.02279663 45.73065186-47.81195068 11.77404785-18.77233887 19.43585205-39.94854736 22.6107788-61.48425293-.6887207 8.63778686-2.2711792 15.53527832-4.27185058 21.58776855zm-64.06958008 87.70843506c-.77941894.5291748-1.57232666 1.03649903-2.3618164 1.55218506.84936523-.5600586 1.6932373-1.12841797 2.53149414-1.70507812-.03527832.03863525-.1091919.09912109-.16967774.15289306zm13.21014405-8.90457153c.67590332-.57009888 1.34918212-1.14602661 2.01947021-1.72888184.19226074-.17520141.3859253-.34912109.58050537-.52230835-.85809326.7600708-1.72479248 1.51052857-2.59997558 2.25119019zm-1.97528077 1.649292c-4.7034912 3.84988402-9.61920166 7.4330139-14.72387695 10.73257445 5.05133057-3.17492675 9.953125-6.80340576 14.72387695-10.73257446z"/>
      <path fill="rgb(255,255,255)" fill-rule="evenodd" d="M269.48910522 245.5123291c7.11419678-9.38534546 13.40014649-20.60003662 17.41333008-30.26086426l-.04870605.0100708c-10.1815796 24.0588379-26.69622803 44.78485108-47.30462647 60.04464722 3.65905762-2.54318237 7.25390625-5.17745972 10.78131104-7.9003601 4.53222656-4.73718262 12.11676025-12.44097901 19.1586914-21.89349366zm-167.35693359 54.50445557c-16.171875-6.31451416-30.70092773-15.68811035-42.74884033-26.45932007 5.71990967 4.87158203 11.75054932 9.3887024 18.11047363 13.43377686 6.40740967 3.99221801 13.08337403 7.53622436 19.98016358 10.6065979 6.93273925 3.02203369 14.11914062 5.48303222 21.4500122 7.4736328 7.3359375 1.9973755 14.87176514 3.2572632 22.4630127 4.09887696-1.68151856-.09747314-3.34796143-.3427124-5.01776123-.5593872-1.66638184-.2352295-3.34625244-.39813233-5.00427246-.69213868-3.30926514-.61987304-6.64379883-1.140625-9.90942383-1.98388672-6.58166504-1.46484375-13.01715088-3.54449463-19.32336426-5.91815185zM86.41384888 284.2463684c2.25268554 1.32202148 4.64477539 2.48617554 7.01843261 3.76956177.59466553.32592773 1.6730957.69714355 3.02539063 1.19104003-2.89105225-1.24139404-5.66107178-2.78018188-8.47650147-4.20803833-1.3942871-.7408142-2.73651123-1.5706787-4.10388183-2.34338378-1.28118897-.73208619-2.55786133-1.46270752-3.77722168-2.26974488l1.33807373.8939209 1.64117432.98104859 3.33453369 1.9855957zm121.68170166 8.51345825l-3.72753907 1.46313477-3.80657959 1.2699585c-2.51977539.90716552-5.11846923 1.58581542-7.71051025 2.30645751 2.60546875-.65515137 5.22601318-1.26660156 7.76763916-2.10650635l3.835083-1.17254638 3.74609376-1.3690796c-.03918457-.02001952-.13043213-.0223999-.22485352-.02490234-.25390625-.0065918-.53076172-.01385498.1206665-.36651611zm-49.87145996 9.72631836c1.96209716-.0201416 3.92077636-.00500488 5.86938476-.17132568-2.31817627.29229736-4.62127685.34771728-6.94110107.54595947-.63665772-.07562256-1.36572266-.13775635-2.17541504-.18981934l-2.64746094-.24865722c1.7756958.11682129 3.5499878.0939331 5.32421875.07104492.19018555-.0024414.38031006-.00494385.57037354-.00720215zm36.54187011 7.76599121l.71557618-.20996094c-.74920655.20159912-1.4866333.42333985-2.24090577.61480713.51068116-.12762451 1.02301026-.25195312 1.5253296-.40484619z"/>
    </g>
    <g>
      <path fill="rgb(255,255,255)" fill-rule="evenodd" d="M200.0944519 100.65499878c1.95776368 11.56326294 3.91436768 23.12649536 5.87213135 34.6897583.17669678 1.04666138-.35888672 1.8644104-1.36218262 2.00775146-.2411499.03445435-.49224853.03335572-.7444458-.00109863-.7966919-.11001587-1.60443115-.54556274-2.17999267-1.24554443-.00921631.002594-.0545044-.03881836-.13739014-.11456299-.7670288-.70129395-4.75292969-4.34552002-13.12805176-3.26654053-19.08099365 2.78997803-36.69195556 14.26101685-56.03961181 15.47213745-6.77215576.47775269-13.23321533-5.97885131-14.35876465-12.62991333-1.92999268-11.40438842-3.86108399-22.80984497-5.79107666-34.21420288-.16668701-.98779297.33221435-1.74111938 1.2477417-1.93887329.9144287-.19555664 2.05218506.1888733 2.86218262.98999024-.00177002-.01434327.04516601.02322387.14147949.1003418.80682373.64578246 5.07836914 4.0649414 13.21954345 2.99295043 19.08099366-2.78997802 36.69195557-14.2598877 56.03961182-15.47210693 6.77215576-.47888184 13.23321533 5.97885132 14.35882568 12.62991333zM148.0414734 120.7359619c2.15222168 8.25772095 9.64880371 13.45098877 16.74432373 11.60214234 7.09552002-1.8500061 11.10321045-10.0421753 8.9510498-18.2987671-2.15222168-8.25772094-9.64886474-13.45101928-16.74432373-11.60214233-7.09552002 1.84887696-11.10327148 10.04214478-8.9510498 18.2987671z"/>
      <path fill="rgb(255,255,255)" fill-rule="evenodd" d="M162.23137595 128.42368268l-.47999658-1.8444313c-3.25886569.3499975-4.8577432-1.49665602-5.6210711-4.08885978l3.90774996-1.01888164c.39221943 1.27999089 1.02110384 2.1144294 2.31442797 1.77776512.98999295-.25777594 1.32665722-1.1099921 1.06110355-2.12887373-.32333103-1.23888007-1.01777053-1.76220968-2.9522012-2.0810963-3.72997344-.5566627-5.43773906-1.58109985-6.20440027-4.52552333-.67443964-2.58664825.3099978-4.8999651 2.78109131-6.01440162l-.37221957-1.43110092 2.75220263-.71777267.37221957 1.43110092c2.78442462-.25555373 4.36441337 1.18443602 5.1366301 3.9221943l-3.76997317.98221523c-.36444185-1.2855464-1.03888149-1.84554242-2.0844296-1.57221103-.9355489.2433316-1.23888007.99888178-.97999302 1.98887473.27222028 1.04554811 1.0077706 1.50110042 3.0877558 1.81109821 3.63330745.5222185 5.37773948 1.8022094 6.115512 4.63552256.70999495 2.72442504-.0044444 5.05663066-2.79998006 6.2843997l.4877743 1.87109778-2.75220262.71888377z"/>
      <path fill="rgb(255,255,255)" fill-rule="evenodd" d="M198.83333756 139.40582671c-.06666619-.06666619-.13555459-.12888797-.19999857-.19777637-.00555552-.00555551-.01222214-.01111103-.01777765-.01555544-1.64221053-1.50110043-4.20330341-2.3277612-7.21105977-2.3277612-.76666121 0-1.57332213.05333295-2.39887181.15777665-8.28549656 1.216658-16.26432864 4.15108155-24.71204627 7.256615-10.09103927 3.71108469-20.52540942 7.54772404-31.631997 8.24660795-.32999765.02333317-.66555082.0344442-.99665957.0344442-4.198859 0-8.40994012-1.82109815-11.85880446-5.12774127-3.17108853-3.04108946-5.3810728-7.10106055-6.06551237-11.14103179l-1.92998625-11.40436324-2.63331459-15.54877818c-.6266622-.3111089-1.30776847-.42888584-1.89776426-.30333118-.91554904.19777637-1.41443438.95110434-1.2477689 1.93887509 1.92998626 11.40436324 3.86108362 22.80983759 5.79106988 34.21420084 1.12554754 6.65106375 7.58661265 13.10768445 14.35878665 12.62991007 19.34764003-1.2122136 36.95862575-12.68213193 56.039601-15.47211206 9.27993393-1.19554704 13.17101733 3.40775351 13.2654611 3.38108704.57555146.69999501 1.38332349 1.13554747 2.17998448 1.24554668.25222043.0344442.50332975.0355553.74443915.0011111 1.00332619-.1433323 1.53887793-.96221536 1.36221252-2.00776347l-.9399933-5.55996042z"/>
    </g>
    <path fill="rgb(255,255,255)" fill-rule="evenodd" d="M251.03274536 184.27728271c-1.80133057 0-3.16595459-1.36462402-3.16595459-3.16592407 0-1.74673462 1.36462402-3.11135864 3.1659546-3.11135864 1.7467041 0 3.11132812 1.36462402 3.11132812 3.11135864 0 1.80130005-1.36462403 3.16592407-3.11132813 3.16592407zm-158.4607544-5.78601074l-3.4934082 11.24453736h-.21838379c.70965577-7.42358399-2.45629882-10.42575074-8.07855224-10.42575074h-3.98474121v33.73361206c0 2.5109253 1.91046142 3.11135865 5.24017334 3.38427735v.2729187H65.98904419v-.2729187c3.32971191-.2729187 5.24017334-.87335205 5.24017334-3.38427735V179.3100586H69.9737854c-8.29696655 0-10.58953857 3.00216675-13.75546265 10.42575074h-.21835327l1.80130005-11.24453736h34.77072144zm52.12884522 38.7008667c-1.6375122-1.09170532-2.12878418-2.01965332-2.12878418-4.96725464v-20.30566406c-2.72924804-1.36462402-5.56768799-2.01965332-9.06115722-2.01965332-11.35369874 0-16.92138672 6.76855469-16.92138672 14.6288147 0 7.91485595 5.56768798 12.55459594 13.1550293 12.55459594 2.56549072 0 4.74890136-.54586792 6.49560546-1.47381591 0 .05459594-.05456543.05459594-.05456543.05459594l8.5152588 1.69213868v-.16375733zm25.87335205-4.2576294l-.32751465 3.76635743h7.47814942c-1.6375122-1.09170532-2.12878418-2.1288147-2.12878418-5.07641602v-11.79037475c0-8.2423706-4.25769043-9.93450928-7.80566406-9.93450928-4.85809327 0-9.06115723 3.16592407-12.00878907 5.13101196v-1.03713989l.27294922-4.03927612-8.62445068.8187561v.21835327c1.14630127.10916138 2.56549072.49127198 3.32971191.98254395v20.96069336l-.32751465 3.76635742h7.47814942c-1.63757324-1.09170532-2.12884522-2.1288147-2.12884522-5.07641602v-15.39300537c2.78387452-1.855896 5.40393067-3.9847107 8.8973999-3.9847107 2.83843995 0 5.89520264 1.47378541 5.89520264 7.6965027v12.99127197zm29.42138672 12.17248536c1.25549317-.32751465 2.5109253-1.03710938 2.5109253-3.76638794v-6.55020142c-1.855896 1.41918946-4.53057862 2.29257202-7.80566407 2.29257202-7.5873413 0-13.1550293-4.63973999-13.1550293-12.55459594 0-7.86026001 5.567688-14.6288147 16.92138672-14.6288147 3.49346924 0 6.33190918.6550293 9.06115723 2.01965332v30.73144531c0 2.94760132 1.2008667 4.47598267 3.82092285 6.1135254l-11.35369873-3.65719605zm32.80566406 0c1.25549317-.32751465 2.5109253-1.03710938 2.5109253-3.76638794v-6.55020142c-1.855896 1.41918946-4.53057862 2.29257202-7.80566407 2.29257202-7.5873413 0-13.1550293-4.63973999-13.1550293-12.55459594 0-7.86026001 5.567688-14.6288147 16.92138673-14.6288147 3.49346923 0 6.33190918.6550293 9.06115722 2.01965332v30.73144531c0 2.94760132 1.2008667 4.47598267 3.82092285 6.1135254l-11.35369873-3.65719605zm-122.10693359-35.15286255c.98254395 0 1.855896.16375732 2.89300537.6550293l-4.69433594 7.64190674h-.21832275c1.47381592-3.65719605.16375732-5.24017334-1.58300781-5.24017334-2.78381348 0-4.53051758 3.49346923-5.07641602 7.3144226v11.2991333c0 2.9475708.49127197 3.9847107 2.12884522 5.07641602H96.7204895l.27294922-3.76638794V191.9737854c-.7642212-.49127197-2.18341064-.87335205-3.32971191-.98254394v-.21832276l8.62445068-.81878662-.27294922 4.03930664v1.7467041h.70965576c1.25543213-3.49343872 4.31219483-5.78601074 7.96942139-5.78601074zm138.1550293 22.98034668l-.32751465 3.76638794h7.47814941c-1.63757324-1.09170532-2.12884521-2.12884522-2.12884521-5.07641602v-17.63101196l.27294922-4.03930664-8.62445069.81878662v.21832276c1.14630127.10919189 2.56549073.49127197 3.32971192.98254394v20.96069336zm-126.9650879-11.35369873c0 7.80566406 4.74890137 13.9737854 11.02618409 13.9737854 2.12884521 0 3.4389038-.70959473 4.53057861-1.91046143.05456543-.54586792.1091919-1.25546264.1091919-2.1288147v-17.576416c-1.63757325-1.74673463-3.76641846-3.00219727-6.7685547-3.00219727-5.62231444 0-8.8973999 4.20306396-8.8973999 10.644104zm80.62225342 11.8449707C201.46939087 214.73580933 200.10470581 215.5 197.86672974 215.5c-6.27728272 0-11.02618409-6.1135559-11.02618409-13.91921997 0-6.44104004 3.27508545-10.644104 8.8973999-10.644104 3.00213624 0 5.13098145 1.25546264 6.7685547 3.00219726v19.48687744zm32.80566407 0C234.27505493 214.73580933 232.91036987 215.5 230.6723938 215.5c-6.27728272 0-11.02618408-6.1135559-11.02618408-13.91921997 0-6.44104004 3.27508545-10.644104 8.8973999-10.644104 3.00213623 0 5.13098144 1.25546264 6.76855469 3.00219726v19.48687744z"/>
  </g>
</svg>
